<?xml version="1.0" encoding="UTF-8"?>
<!DOCTYPE svg PUBLIC "-//W3C//DTD SVG 1.1//EN" "http://www.w3.org/Graphics/SVG/1.1/DTD/svg11.dtd">
<svg xmlns="http://www.w3.org/2000/svg" version="1.1" width="1024px" height="1024px" style="shape-rendering:geometricPrecision; text-rendering:geometricPrecision; image-rendering:optimizeQuality; fill-rule:evenodd; clip-rule:evenodd" xmlns:xlink="http://www.w3.org/1999/xlink">
<g><path style="opacity:0.212" fill="#8e8984" d="M 931.5,0.5 C 931.5,0.166667 931.5,-0.166667 931.5,-0.5C 962.167,-0.5 992.833,-0.5 1023.5,-0.5C 1023.5,15.5 1023.5,31.5 1023.5,47.5C 1023.17,47.5 1022.83,47.5 1022.5,47.5C 1022.5,31.8333 1022.5,16.1667 1022.5,0.5C 992.167,0.5 961.833,0.5 931.5,0.5 Z"/></g>
<g><path style="opacity:0.212" fill="#898175" d="M -0.5,-0.5 C 310.167,-0.5 620.833,-0.5 931.5,-0.5C 931.5,-0.166667 931.5,0.166667 931.5,0.5C 621.167,0.5 310.833,0.5 0.5,0.5C 0.5,39.8333 0.5,79.1667 0.5,118.5C 0.166667,118.5 -0.166667,118.5 -0.5,118.5C -0.5,78.8333 -0.5,39.1667 -0.5,-0.5 Z"/></g>
<g><path style="opacity:1" fill="#b68d3b" d="M 563.5,158.5 C 570.121,159.948 575.621,163.282 580,168.5C 587.982,179.433 595.148,189.766 601.5,199.5C 602.463,200.363 602.463,201.03 601.5,201.5C 600.328,201.081 599.328,200.415 598.5,199.5C 592.496,189.488 585.996,179.822 579,170.5C 573.848,165.009 567.681,161.175 560.5,159C 561.448,158.517 562.448,158.351 563.5,158.5 Z"/></g>
<g><path style="opacity:0.997" fill="#b79346" d="M 563.5,158.5 C 562.448,158.351 561.448,158.517 560.5,159C 567.681,161.175 573.848,165.009 579,170.5C 585.996,179.822 592.496,189.488 598.5,199.5C 599.328,200.415 600.328,201.081 601.5,201.5C 602.463,201.03 602.463,200.363 601.5,199.5C 612.051,200.746 622.551,202.412 633,204.5C 638.528,205.439 643.528,208.106 648,212.5C 650.584,220.08 648.417,225.913 641.5,230C 631.459,234.458 621.125,238.125 610.5,241C 608.456,241.498 607.122,242.665 606.5,244.5C 605.81,243.12 605.476,241.786 605.5,240.5C 605.167,241.667 604.833,242.833 604.5,244C 607.002,256.504 607.502,269.004 606,281.5C 606.232,280.263 606.732,279.263 607.5,278.5C 602.197,298.808 590.197,313.808 571.5,323.5C 571.631,322.624 571.298,321.957 570.5,321.5C 561.918,326.051 552.751,328.384 543,328.5C 537.497,327.887 531.997,327.721 526.5,328C 528.058,328.21 529.391,328.71 530.5,329.5C 511.984,326.175 497.151,316.842 486,301.5C 484.456,304.264 483.289,304.097 482.5,301C 484.877,299.53 484.877,298.03 482.5,296.5C 477.273,286.818 474.273,276.484 473.5,265.5C 464.139,266.942 454.806,266.775 445.5,265C 442.848,264.647 440.848,263.48 439.5,261.5C 440.423,262.303 441.423,262.47 442.5,262C 434.676,257.539 432.843,251.372 437,243.5C 446.164,234.672 456.664,228.005 468.5,223.5C 469.221,220.183 469.388,216.849 469,213.5C 468.79,215.058 468.29,216.391 467.5,217.5C 468.471,207.004 470.305,196.671 473,186.5C 478.008,175.239 486.508,168.072 498.5,165C 518.808,159.281 539.474,156.614 560.5,157C 561.737,157.232 562.737,157.732 563.5,158.5 Z"/></g>
<g><path style="opacity:0.998" fill="#f2d58d" d="M 490.5,246.5 C 487.023,245.677 483.356,245.177 479.5,245C 480.696,244.346 480.696,243.846 479.5,243.5C 478.614,244.325 478.281,245.325 478.5,246.5C 472.491,246.666 466.491,246.499 460.5,246C 467.342,242.078 474.342,238.412 481.5,235C 484.293,231.725 484.96,228.225 483.5,224.5C 484.737,214.134 486.237,203.801 488,193.5C 493.496,185.027 501.329,180.193 511.5,179C 525.418,176.291 539.418,174.125 553.5,172.5C 560.298,172.985 565.798,175.985 570,181.5C 576.251,190.999 582.251,200.666 588,210.5C 589.5,212 591,213.5 592.5,215C 602.155,216.666 611.822,218.333 621.5,220C 578.614,232.674 534.948,241.508 490.5,246.5 Z"/></g>
<g><path style="opacity:0.004" fill="#bfa05b" d="M 463.5,215.5 C 464.289,215.783 464.956,216.283 465.5,217C 464.184,217.528 463.517,217.028 463.5,215.5 Z"/></g>
<g><path style="opacity:1" fill="#b68d3a" d="M 439.5,261.5 C 435.996,260.545 433.829,258.211 433,254.5C 431.97,249.72 432.97,245.387 436,241.5C 444.89,233.634 454.723,227.134 465.5,222C 466.582,220.67 467.249,219.17 467.5,217.5C 468.29,216.391 468.79,215.058 469,213.5C 469.388,216.849 469.221,220.183 468.5,223.5C 456.664,228.005 446.164,234.672 437,243.5C 432.843,251.372 434.676,257.539 442.5,262C 441.423,262.47 440.423,262.303 439.5,261.5 Z"/></g>
<g><path style="opacity:1" fill="#f8e49b" d="M 483.5,224.5 C 484.96,228.225 484.293,231.725 481.5,235C 474.342,238.412 467.342,242.078 460.5,246C 466.491,246.499 472.491,246.666 478.5,246.5C 478.281,245.325 478.614,244.325 479.5,243.5C 480.696,243.846 480.696,244.346 479.5,245C 483.356,245.177 487.023,245.677 490.5,246.5C 478.888,248.164 467.221,248.664 455.5,248C 463.348,242.573 471.682,237.906 480.5,234C 482.404,231.123 483.404,227.956 483.5,224.5 Z"/></g>
<g><path style="opacity:0.998" fill="#f2d48d" d="M 571.5,303.5 C 571.44,302.957 571.107,302.624 570.5,302.5C 558.797,309.924 546.13,313.258 532.5,312.5C 512.813,308.74 499.646,297.407 493,278.5C 491.11,272.985 490.276,267.319 490.5,261.5C 498.223,261.409 505.889,260.743 513.5,259.5C 520.058,260.19 526.725,259.69 533.5,258C 532.552,257.517 531.552,257.351 530.5,257.5C 550.09,253.983 569.756,250.317 589.5,246.5C 595.947,269.49 589.947,288.49 571.5,303.5 Z"/></g>
<g><path style="opacity:0.992" fill="#b7903e" d="M 606.5,244.5 C 609.899,255.886 610.233,267.219 607.5,278.5C 606.732,279.263 606.232,280.263 606,281.5C 607.502,269.004 607.002,256.504 604.5,244C 604.833,242.833 605.167,241.667 605.5,240.5C 605.476,241.786 605.81,243.12 606.5,244.5 Z"/></g>
<g><path style="opacity:1" fill="#f9e8a2" d="M 530.5,257.5 C 531.552,257.351 532.552,257.517 533.5,258C 526.725,259.69 520.058,260.19 513.5,259.5C 519.116,258.46 524.783,257.793 530.5,257.5 Z"/></g>
<g><path style="opacity:0.004" fill="#c8a75e" d="M 472.5,273.5 C 473.598,274.601 473.765,275.934 473,277.5C 471.666,276.122 471.499,274.789 472.5,273.5 Z"/></g>
<g><path style="opacity:0.02" fill="#c6a65d" d="M 482.5,296.5 C 482.253,298.975 481.587,298.975 480.5,296.5C 480.97,295.537 481.637,295.537 482.5,296.5 Z"/></g>
<g><path style="opacity:0.992" fill="#f8e6a0" d="M 571.5,303.5 C 559.702,311.654 546.702,314.654 532.5,312.5C 546.13,313.258 558.797,309.924 570.5,302.5C 571.107,302.624 571.44,302.957 571.5,303.5 Z"/></g>
<g><path style="opacity:0.986" fill="#b78c38" d="M 571.5,323.5 C 558.404,330.161 544.738,332.161 530.5,329.5C 529.391,328.71 528.058,328.21 526.5,328C 531.997,327.721 537.497,327.887 543,328.5C 552.751,328.384 561.918,326.051 570.5,321.5C 571.298,321.957 571.631,322.624 571.5,323.5 Z"/></g>
<g><path style="opacity:1" fill="#bb9342" d="M 518.5,330.5 C 519.263,331.268 520.263,331.768 521.5,332C 513.167,332.333 504.833,332.667 496.5,333C 493.167,334 489.833,335 486.5,336C 478.79,339.725 471.624,344.225 465,349.5C 444.956,338.09 423.789,335.423 401.5,341.5C 400.537,341.03 400.537,340.363 401.5,339.5C 405.422,337.282 409.756,336.115 414.5,336C 422.087,335.847 429.587,335.68 437,335.5C 437.388,336.428 438.055,337.095 439,337.5C 448.18,339.615 457.013,342.615 465.5,346.5C 469.795,343.681 474.128,340.848 478.5,338C 478.93,337.08 479.264,336.247 479.5,335.5C 480.167,335.833 480.833,336.167 481.5,336.5C 493.155,330.406 505.488,328.406 518.5,330.5 Z"/></g>
<g><path style="opacity:0.997" fill="#b89347" d="M 518.5,330.5 C 522.693,330.674 526.693,331.674 530.5,333.5C 531.086,333.291 531.586,332.957 532,332.5C 533.102,333.949 534.269,335.282 535.5,336.5C 534.668,337.329 535.001,338.162 536.5,339C 543.949,342.641 550.116,347.807 555,354.5C 563.782,369.729 571.782,385.396 579,401.5C 579.464,400.906 579.631,400.239 579.5,399.5C 581.25,400.659 582.25,402.326 582.5,404.5C 581.637,403.537 580.97,403.537 580.5,404.5C 588.421,420.334 595.754,436.334 602.5,452.5C 603.833,452.5 605.167,452.5 606.5,452.5C 620.126,456.75 634.293,461.084 649,465.5C 665.921,469.807 682.421,475.307 698.5,482C 714.942,492.733 719.442,507.233 712,525.5C 704.462,537.356 693.629,543.689 679.5,544.5C 650.069,539.555 621.069,533.222 592.5,525.5C 595.598,525.587 595.932,525.087 593.5,524C 581.35,522.122 570.35,517.622 560.5,510.5C 559.893,510.624 559.56,510.957 559.5,511.5C 557.284,510.797 555.451,509.464 554,507.5C 552.826,518.216 551.326,528.882 549.5,539.5C 550.903,541.417 550.57,542.417 548.5,542.5C 548.244,536.251 547.577,536.584 546.5,543.5C 561.484,573.959 575.984,604.625 590,635.5C 591.296,640.35 592.963,645.017 595,649.5C 595.483,648.552 595.649,647.552 595.5,646.5C 598.413,653.478 600.413,660.811 601.5,668.5C 602.675,668.281 603.675,668.614 604.5,669.5C 603.559,669.489 602.892,669.989 602.5,671C 603.916,676.831 605.25,682.665 606.5,688.5C 605.35,687.15 604.683,687.316 604.5,689C 607.266,701.563 610.266,714.063 613.5,726.5C 612.833,727.167 612.167,727.833 611.5,728.5C 612.03,730.244 612.03,731.744 611.5,733C 608.532,734.263 607.532,736.263 608.5,739C 605.977,740.36 603.977,742.193 602.5,744.5C 598.944,727.943 594.944,711.61 590.5,695.5C 590.5,694.833 590.5,694.167 590.5,693.5C 591.124,693.083 591.457,692.416 591.5,691.5C 588.667,680.167 585.833,668.833 583,657.5C 582.53,654.928 581.697,653.261 580.5,652.5C 579.662,652.158 579.328,651.492 579.5,650.5C 579.672,649.508 579.338,648.842 578.5,648.5C 578.167,647.167 577.833,645.833 577.5,644.5C 576.13,636.775 573.13,629.441 568.5,622.5C 565.384,617.93 563.05,612.93 561.5,607.5C 554.732,591.843 547.398,576.509 539.5,561.5C 536.412,556.594 534.078,551.26 532.5,545.5C 534.439,527.047 537.105,508.714 540.5,490.5C 534.266,479.705 527.766,469.038 521,458.5C 505.061,476.873 486.561,492.04 465.5,504C 458.695,507.406 451.695,510.239 444.5,512.5C 443.504,512.414 442.671,512.748 442,513.5C 440.922,522.404 441.922,531.071 445,539.5C 446.357,542.898 448.19,545.898 450.5,548.5C 462.895,563.623 474.562,579.289 485.5,595.5C 484.027,594.26 482.36,593.26 480.5,592.5C 480.277,593.967 479.944,595.467 479.5,597C 482.167,597.667 482.167,598.333 479.5,599C 481.929,599.451 482.096,600.285 480,601.5C 477.253,598.966 474.587,598.966 472,601.5C 470.333,599.167 468.667,596.833 467,594.5C 466.31,593.262 465.81,593.262 465.5,594.5C 463.886,592.544 462.219,590.544 460.5,588.5C 455.239,600.95 450.572,613.617 446.5,626.5C 441.357,641.93 436.024,657.264 430.5,672.5C 429.662,672.842 429.328,673.508 429.5,674.5C 421.29,690.252 413.624,706.252 406.5,722.5C 397.774,738.28 389.274,754.28 381,770.5C 377.784,776.264 375.117,782.264 373,788.5C 372.19,793.257 372.524,797.924 374,802.5C 376.696,806.361 379.863,809.694 383.5,812.5C 384.842,813.793 386.509,814.626 388.5,815C 391.5,815.333 394.5,815.667 397.5,816C 394.833,816.333 392.167,816.667 389.5,817C 388.101,820.064 385.768,822.064 382.5,823C 385.003,824.22 387.669,824.553 390.5,824C 389.833,824.333 389.167,824.667 388.5,825C 390.433,825.251 392.266,825.751 394,826.5C 394.374,825.584 394.874,824.75 395.5,824C 397.075,824.379 398.575,824.212 400,823.5C 401.719,824.869 403.552,825.869 405.5,826.5C 390.331,830.892 377.164,827.558 366,816.5C 364.833,814.667 363.667,812.833 362.5,811C 361.563,810.308 360.897,810.475 360.5,811.5C 358.707,809.574 357.707,807.241 357.5,804.5C 358.222,804.918 358.722,805.584 359,806.5C 359.167,805.833 359.333,805.167 359.5,804.5C 358.011,799.621 357.178,794.621 357,789.5C 356.502,792.817 356.335,796.15 356.5,799.5C 355.002,792.978 355.669,786.645 358.5,780.5C 358.351,781.552 358.517,782.552 359,783.5C 375.587,749.923 392.087,716.257 408.5,682.5C 408.03,681.537 407.363,681.537 406.5,682.5C 406.66,680.847 407.326,679.514 408.5,678.5C 408.393,680.379 408.893,680.712 410,679.5C 418.623,663.684 425.123,647.017 429.5,629.5C 429.457,628.584 429.124,627.917 428.5,627.5C 434.468,608.763 441.135,590.263 448.5,572C 447.002,569.336 445.002,567.17 442.5,565.5C 442.5,564.833 442.167,564.5 441.5,564.5C 437.152,559.145 433.819,553.145 431.5,546.5C 429.429,545.191 426.929,544.525 424,544.5C 421.31,544.503 418.81,544.836 416.5,545.5C 407.42,566.327 397.253,586.66 386,606.5C 385.516,608.193 386.016,609.527 387.5,610.5C 386.761,610.369 386.094,610.536 385.5,611C 402.496,623.829 406.162,639.662 396.5,658.5C 396.97,659.463 397.637,659.463 398.5,658.5C 394.749,665.671 390.749,672.671 386.5,679.5C 386.631,678.761 386.464,678.094 386,677.5C 376.331,694.52 366.998,711.52 358,728.5C 358.383,727.944 358.883,727.611 359.5,727.5C 348.137,747.053 337.137,766.887 326.5,787C 326.989,788.138 327.322,789.305 327.5,790.5C 326.35,789.15 325.683,789.316 325.5,791C 327.329,797.779 327.829,804.613 327,811.5C 327.278,810.584 327.778,809.918 328.5,809.5C 325.385,822.404 317.385,830.404 304.5,833.5C 282.415,834.586 269.248,824.253 265,802.5C 264.517,803.448 264.351,804.448 264.5,805.5C 263.839,804.282 263.172,802.949 262.5,801.5C 247.982,796.499 235.815,788.166 226,776.5C 223.189,772.234 221.689,767.567 221.5,762.5C 222.29,763.609 222.79,764.942 223,766.5C 222.303,755.313 224.803,744.98 230.5,735.5C 230.03,734.537 229.363,734.537 228.5,735.5C 229.698,732.414 231.365,729.748 233.5,727.5C 232.588,728.738 232.421,730.072 233,731.5C 246.486,707.199 259.986,682.865 273.5,658.5C 273.03,657.537 272.363,657.537 271.5,658.5C 271.721,656.336 272.721,654.67 274.5,653.5C 274.369,654.239 274.536,654.906 275,655.5C 284.35,639.115 293.35,622.782 302,606.5C 301.617,607.056 301.117,607.389 300.5,607.5C 310.36,592.256 324.36,586.422 342.5,590C 350.492,592.162 358.158,595.162 365.5,599C 367.265,599.64 368.932,599.473 370.5,598.5C 370.369,599.239 370.536,599.906 371,600.5C 380.422,582.656 389.589,564.656 398.5,546.5C 398.376,545.893 398.043,545.56 397.5,545.5C 397.389,544.883 397.056,544.383 396.5,544C 392.962,543.465 389.628,542.632 386.5,541.5C 387.873,541.657 389.207,541.49 390.5,541C 379.426,539.131 370.092,534.131 362.5,526C 361.833,525.333 361.167,525.333 360.5,526C 361.252,526.671 361.586,527.504 361.5,528.5C 360.167,527.167 358.833,525.833 357.5,524.5C 354.027,519.22 351.36,513.553 349.5,507.5C 350.222,507.918 350.722,508.584 351,509.5C 351.167,508.833 351.333,508.167 351.5,507.5C 350.239,503.933 349.405,500.266 349,496.5C 348.852,485.322 348.686,474.322 348.5,463.5C 348.194,460.615 348.527,457.948 349.5,455.5C 349.337,457.857 349.503,460.19 350,462.5C 351.661,455.211 352.661,447.878 353,440.5C 352.61,443.104 351.776,445.438 350.5,447.5C 351.057,442.948 352.057,438.615 353.5,434.5C 353.34,436.199 353.506,437.866 354,439.5C 357.178,425.796 360.178,412.129 363,398.5C 362.617,399.056 362.117,399.389 361.5,399.5C 365.77,384.818 370.937,371.485 377,359.5C 383.219,350.448 391.386,343.781 401.5,339.5C 400.537,340.363 400.537,341.03 401.5,341.5C 423.789,335.423 444.956,338.09 465,349.5C 471.624,344.225 478.79,339.725 486.5,336C 489.833,335 493.167,334 496.5,333C 504.833,332.667 513.167,332.333 521.5,332C 520.263,331.768 519.263,331.268 518.5,330.5 Z"/></g>
<g><path style="opacity:0.998" fill="#f2d48d" d="M 503.5,346.5 C 506.305,347.319 509.305,347.819 512.5,348C 508.834,348.39 508.668,349.557 512,351.5C 512.92,349.686 514.42,348.686 516.5,348.5C 525.891,349.862 533.891,353.862 540.5,360.5C 543.323,361.992 544.99,364.326 545.5,367.5C 547.037,372.247 548.87,376.913 551,381.5C 557.763,395.35 564.597,409.016 571.5,422.5C 574.167,426.164 576,430.164 577,434.5C 564.749,442.042 552.582,449.708 540.5,457.5C 535.575,450.643 530.908,443.643 526.5,436.5C 521.89,426.947 517.556,417.28 513.5,407.5C 512.49,400.97 508.824,398.137 502.5,399C 496.891,402.277 495.058,407.11 497,413.5C 501.175,424.016 506.009,434.183 511.5,444C 494.801,464.044 475.134,480.377 452.5,493C 449.904,494.136 447.237,494.969 444.5,495.5C 445.393,480.459 446.727,465.459 448.5,450.5C 450.067,443.662 451.4,436.662 452.5,429.5C 453.91,419.452 455.576,409.452 457.5,399.5C 459.303,375.393 471.303,358.559 493.5,349C 496.768,347.85 500.101,347.016 503.5,346.5 Z"/></g>
<g><path style="opacity:1" fill="#f6e39b" d="M 503.5,346.5 C 516.105,345.317 527.438,348.484 537.5,356C 539.141,357.129 540.141,358.629 540.5,360.5C 533.891,353.862 525.891,349.862 516.5,348.5C 514.42,348.686 512.92,349.686 512,351.5C 508.668,349.557 508.834,348.39 512.5,348C 509.305,347.819 506.305,347.319 503.5,346.5 Z"/></g>
<g><path style="opacity:0.998" fill="#f2d48d" d="M 433.5,353.5 C 441.177,354.892 448.51,357.392 455.5,361C 453.208,364.416 451.041,367.916 449,371.5C 445.942,380.485 443.442,389.485 441.5,398.5C 441.631,397.761 441.464,397.094 441,396.5C 436.62,412.433 434.12,428.433 433.5,444.5C 431.479,460.297 429.479,475.963 427.5,491.5C 425.526,502.672 425.192,514.005 426.5,525.5C 417.342,526.167 408.342,526.833 399.5,527.5C 398.833,527.5 398.167,527.5 397.5,527.5C 378.682,525.418 367.349,515.084 363.5,496.5C 364.377,489.172 365.043,481.672 365.5,474C 365.494,471.967 365.161,470.134 364.5,468.5C 368.743,436.27 376.577,404.936 388,374.5C 389.026,371.761 390.526,369.428 392.5,367.5C 396.38,363.455 400.713,359.955 405.5,357C 407.788,356.178 410.122,355.511 412.5,355C 419.679,354.829 426.679,354.329 433.5,353.5 Z"/></g>
<g><path style="opacity:0.996" fill="#f8e59e" d="M 433.5,353.5 C 426.679,354.329 419.679,354.829 412.5,355C 410.122,355.511 407.788,356.178 405.5,357C 400.713,359.955 396.38,363.455 392.5,367.5C 399.403,356.715 409.403,351.715 422.5,352.5C 426.19,352.692 429.857,353.025 433.5,353.5 Z"/></g>
<g><path style="opacity:0.004" fill="#ba9b55" d="M 368.5,371.5 C 369.773,372.077 369.773,372.743 368.5,373.5C 367.537,373.03 367.537,372.363 368.5,371.5 Z"/></g>
<g><path style="opacity:1" fill="#b58b38" d="M 535.5,336.5 C 548.449,342.019 557.615,351.352 563,364.5C 568.827,375.51 574.327,387.176 579.5,399.5C 579.631,400.239 579.464,400.906 579,401.5C 571.782,385.396 563.782,369.729 555,354.5C 550.116,347.807 543.949,342.641 536.5,339C 535.001,338.162 534.668,337.329 535.5,336.5 Z"/></g>
<g><path style="opacity:1" fill="#fbeca5" d="M 441.5,398.5 C 437.998,413.68 435.331,429.013 433.5,444.5C 434.12,428.433 436.62,412.433 441,396.5C 441.464,397.094 441.631,397.761 441.5,398.5 Z"/></g>
<g><path style="opacity:1" fill="#f8e69f" d="M 545.5,367.5 C 554.939,385.381 563.605,403.715 571.5,422.5C 564.597,409.016 557.763,395.35 551,381.5C 548.87,376.913 547.037,372.247 545.5,367.5 Z"/></g>
<g><path style="opacity:0.996" fill="#b68c38" d="M 582.5,404.5 C 590.13,420.765 598.13,436.765 606.5,452.5C 605.167,452.5 603.833,452.5 602.5,452.5C 595.754,436.334 588.421,420.334 580.5,404.5C 580.97,403.537 581.637,403.537 582.5,404.5 Z"/></g>
<g><path style="opacity:1" fill="#b58c39" d="M 353.5,434.5 C 355.484,422.32 358.151,410.653 361.5,399.5C 362.117,399.389 362.617,399.056 363,398.5C 360.178,412.129 357.178,425.796 354,439.5C 353.506,437.866 353.34,436.199 353.5,434.5 Z"/></g>
<g><path style="opacity:0.996" fill="#a57d30" d="M 513.5,407.5 C 517.556,417.28 521.89,426.947 526.5,436.5C 520.946,427.894 516.279,418.727 512.5,409C 512.57,408.235 512.903,407.735 513.5,407.5 Z"/></g>
<g><path style="opacity:0.992" fill="#a47b2d" d="M 457.5,399.5 C 455.576,409.452 453.91,419.452 452.5,429.5C 451.853,428.726 451.52,427.726 451.5,426.5C 452.333,421.5 453.167,416.5 454,411.5C 454.68,406.655 455.847,402.655 457.5,399.5 Z"/></g>
<g><path style="opacity:1" fill="#a57d30" d="M 448.5,450.5 C 446.727,465.459 445.393,480.459 444.5,495.5C 443.838,493.696 443.505,491.696 443.5,489.5C 444,483.5 444.5,477.5 445,471.5C 445.653,463.701 446.819,456.701 448.5,450.5 Z"/></g>
<g><path style="opacity:0.999" fill="#f2d58e" d="M 582.5,449.5 C 583.822,449.33 584.989,449.663 586,450.5C 588.079,454.993 590.412,459.326 593,463.5C 594.731,465.617 596.898,467.117 599.5,468C 630.383,477.073 661.05,486.739 691.5,497C 698.94,503.265 700.44,510.765 696,519.5C 689.964,526.221 682.464,528.721 673.5,527C 646.367,521.64 619.367,515.64 592.5,509C 580.139,506.905 569.972,501.072 562,491.5C 557.583,485.002 553.416,478.335 549.5,471.5C 560.541,464.108 571.541,456.774 582.5,449.5 Z"/></g>
<g><path style="opacity:0.996" fill="#b38832" d="M 349.5,455.5 C 349.401,452.763 349.735,450.096 350.5,447.5C 351.776,445.438 352.61,443.104 353,440.5C 352.661,447.878 351.661,455.211 350,462.5C 349.503,460.19 349.337,457.857 349.5,455.5 Z"/></g>
<g><path style="opacity:0.998" fill="#f2d48d" d="M 539.5,561.5 C 542.282,569.065 545.615,576.398 549.5,583.5C 548.427,584.251 548.26,585.251 549,586.5C 559.407,607.619 569.24,628.285 578.5,648.5C 579.338,648.842 579.672,649.508 579.5,650.5C 578.903,650.735 578.57,651.235 578.5,652C 582.415,667.226 586.415,681.726 590.5,695.5C 594.944,711.61 598.944,727.943 602.5,744.5C 606.667,760.833 610,777.333 612.5,794C 612.137,806.034 606.137,813.701 594.5,817C 580.955,818.311 572.122,812.477 568,799.5C 565.986,790.445 563.819,781.445 561.5,772.5C 562.097,772.265 562.43,771.765 562.5,771C 560.016,760.214 557.016,749.714 553.5,739.5C 546.845,714.557 540.012,689.557 533,664.5C 519.646,639.671 503.812,616.671 485.5,595.5C 474.562,579.289 462.895,563.623 450.5,548.5C 444.011,537.219 442.011,525.219 444.5,512.5C 451.695,510.239 458.695,507.406 465.5,504C 486.561,492.04 505.061,476.873 521,458.5C 527.766,469.038 534.266,479.705 540.5,490.5C 537.105,508.714 534.439,527.047 532.5,545.5C 534.078,551.26 536.412,556.594 539.5,561.5 Z"/></g>
<g><path style="opacity:0.85" fill="#c5a45c" d="M 348.5,463.5 C 347.731,475.15 347.398,486.817 347.5,498.5C 346.82,490.098 346.154,481.598 345.5,473C 347.019,469.949 348.019,466.782 348.5,463.5 Z"/></g>
<g><path style="opacity:0.993" fill="#b2822b" d="M 348.5,463.5 C 348.686,474.322 348.852,485.322 349,496.5C 349.405,500.266 350.239,503.933 351.5,507.5C 351.333,508.167 351.167,508.833 351,509.5C 350.722,508.584 350.222,507.918 349.5,507.5C 348.087,504.781 347.42,501.781 347.5,498.5C 347.398,486.817 347.731,475.15 348.5,463.5 Z"/></g>
<g><path style="opacity:0.996" fill="#fdeea7" d="M 364.5,468.5 C 365.161,470.134 365.494,471.967 365.5,474C 365.043,481.672 364.377,489.172 363.5,496.5C 363.313,487.139 363.646,477.805 364.5,468.5 Z"/></g>
<g><path style="opacity:0.004" fill="#ad9150" d="M 716.5,511.5 C 719.001,511.511 719.168,512.178 717,513.5C 716.536,512.906 716.369,512.239 716.5,511.5 Z"/></g>
<g><path style="opacity:0.018" fill="#caa55d" d="M 564.5,516.5 C 564.489,519.001 563.822,519.168 562.5,517C 563.094,516.536 563.761,516.369 564.5,516.5 Z"/></g>
<g><path style="opacity:0.98" fill="#b88c37" d="M 592.5,525.5 C 582.77,523.701 573.437,520.701 564.5,516.5C 562.64,515.061 560.973,513.395 559.5,511.5C 559.56,510.957 559.893,510.624 560.5,510.5C 570.35,517.622 581.35,522.122 593.5,524C 595.932,525.087 595.598,525.587 592.5,525.5 Z"/></g>
<g><path style="opacity:0.995" fill="#ac8438" d="M 444.5,512.5 C 442.011,525.219 444.011,537.219 450.5,548.5C 448.19,545.898 446.357,542.898 445,539.5C 441.922,531.071 440.922,522.404 442,513.5C 442.671,512.748 443.504,512.414 444.5,512.5 Z"/></g>
<g><path style="opacity:0.007" fill="#c29f59" d="M 357.5,524.5 C 357.798,527.336 357.131,527.836 355.5,526C 356.044,525.283 356.711,524.783 357.5,524.5 Z"/></g>
<g><path style="opacity:0.996" fill="#b68a36" d="M 386.5,541.5 C 384.194,541.007 381.861,540.674 379.5,540.5C 372.849,537.506 366.849,533.506 361.5,528.5C 361.586,527.504 361.252,526.671 360.5,526C 361.167,525.333 361.833,525.333 362.5,526C 370.092,534.131 379.426,539.131 390.5,541C 389.207,541.49 387.873,541.657 386.5,541.5 Z"/></g>
<g><path style="opacity:0.998" fill="#f8e39a" d="M 427.5,491.5 C 427.829,504.011 427.495,516.345 426.5,528.5C 417.447,528.778 408.447,528.444 399.5,527.5C 408.342,526.833 417.342,526.167 426.5,525.5C 425.192,514.005 425.526,502.672 427.5,491.5 Z"/></g>
<g><path style="opacity:0.998" fill="#a17729" d="M 397.5,527.5 C 398.167,527.5 398.833,527.5 399.5,527.5C 408.447,528.444 417.447,528.778 426.5,528.5C 416.281,529.908 405.948,529.742 395.5,528C 396.094,527.536 396.761,527.369 397.5,527.5 Z"/></g>
<g><path style="opacity:0.004" fill="#c19f55" d="M 360.5,533.5 C 361.773,534.077 361.773,534.743 360.5,535.5C 359.537,535.03 359.537,534.363 360.5,533.5 Z"/></g>
<g><path style="opacity:0.008" fill="#c3a15a" d="M 640.5,539.5 C 641.251,538.427 642.251,538.26 643.5,539C 642.648,540.728 641.648,540.895 640.5,539.5 Z"/></g>
<g><path style="opacity:0.012" fill="#c4a35a" d="M 379.5,540.5 C 380.463,541.363 380.463,542.03 379.5,542.5C 378.227,541.743 378.227,541.077 379.5,540.5 Z"/></g>
<g><path style="opacity:0.063" fill="#d3b877" d="M 416.5,545.5 C 418.81,544.836 421.31,544.503 424,544.5C 426.929,544.525 429.429,545.191 431.5,546.5C 426.595,545.555 421.595,545.221 416.5,545.5 Z"/></g>
<g><path style="opacity:0.008" fill="#c8a75f" d="M 441.5,564.5 C 442.167,564.5 442.5,564.833 442.5,565.5C 441.342,568.134 440.342,567.967 439.5,565C 440.094,564.536 440.761,564.369 441.5,564.5 Z"/></g>
<g><path style="opacity:0.21" fill="#878079" d="M -0.5,118.5 C -0.166667,118.5 0.166667,118.5 0.5,118.5C 0.5,419.833 0.5,721.167 0.5,1022.5C 39.1667,1022.5 77.8333,1022.5 116.5,1022.5C 116.5,1022.83 116.5,1023.17 116.5,1023.5C 77.5,1023.5 38.5,1023.5 -0.5,1023.5C -0.5,721.833 -0.5,420.167 -0.5,118.5 Z"/></g>
<g><path style="opacity:0.996" fill="#b88d38" d="M 397.5,545.5 C 398.043,545.56 398.376,545.893 398.5,546.5C 389.589,564.656 380.422,582.656 371,600.5C 370.536,599.906 370.369,599.239 370.5,598.5C 379.152,579.51 388.152,561.844 397.5,545.5 Z"/></g>
<g><path style="opacity:0.986" fill="#b68c38" d="M 548.5,542.5 C 562.875,572.257 577.042,602.257 591,632.5C 593.007,637.02 594.507,641.687 595.5,646.5C 595.649,647.552 595.483,648.552 595,649.5C 592.963,645.017 591.296,640.35 590,635.5C 575.984,604.625 561.484,573.959 546.5,543.5C 547.577,536.584 548.244,536.251 548.5,542.5 Z"/></g>
<g><path style="opacity:0.996" fill="#a98032" d="M 539.5,561.5 C 547.398,576.509 554.732,591.843 561.5,607.5C 556.992,599.818 552.992,591.818 549.5,583.5C 545.615,576.398 542.282,569.065 539.5,561.5 Z"/></g>
<g><path style="opacity:0.998" fill="#b89245" d="M 485.5,595.5 C 503.812,616.671 519.646,639.671 533,664.5C 540.012,689.557 546.845,714.557 553.5,739.5C 556.01,750.539 558.677,761.539 561.5,772.5C 563.819,781.445 565.986,790.445 568,799.5C 572.122,812.477 580.955,818.311 594.5,817C 606.137,813.701 612.137,806.034 612.5,794C 610,777.333 606.667,760.833 602.5,744.5C 603.977,742.193 605.977,740.36 608.5,739C 607.532,736.263 608.532,734.263 611.5,733C 612.03,731.744 612.03,730.244 611.5,728.5C 612.167,727.833 612.833,727.167 613.5,726.5C 610.266,714.063 607.266,701.563 604.5,689C 604.683,687.316 605.35,687.15 606.5,688.5C 614.439,721.354 621.939,754.354 629,787.5C 632.021,810.644 622.521,825.81 600.5,833C 579.603,837.382 564.27,830.215 554.5,811.5C 552.146,803.401 549.813,795.401 547.5,787.5C 546.072,779.243 544.072,771.243 541.5,763.5C 540.945,759.603 539.945,755.937 538.5,752.5C 538.768,750.901 538.434,749.568 537.5,748.5C 536.909,747.849 536.243,747.182 535.5,746.5C 536.167,746.167 536.833,745.833 537.5,745.5C 534.789,735.691 532.123,726.358 529.5,717.5C 528.983,712.654 527.983,707.654 526.5,702.5C 523.203,702.671 522.869,702.005 525.5,700.5C 523.096,690.852 520.096,681.519 516.5,672.5C 513.887,665.941 510.721,659.608 507,653.5C 503.835,667.321 499.168,680.988 493,694.5C 480.802,715.993 469.135,736.66 458,756.5C 448.726,773.392 439.226,790.059 429.5,806.5C 429.607,804.621 429.107,804.288 428,805.5C 423.525,815.81 416.025,822.81 405.5,826.5C 403.552,825.869 401.719,824.869 400,823.5C 398.575,824.212 397.075,824.379 395.5,824C 394.874,824.75 394.374,825.584 394,826.5C 392.266,825.751 390.433,825.251 388.5,825C 389.167,824.667 389.833,824.333 390.5,824C 387.669,824.553 385.003,824.22 382.5,823C 385.768,822.064 388.101,820.064 389.5,817C 392.167,816.667 394.833,816.333 397.5,816C 394.5,815.667 391.5,815.333 388.5,815C 386.509,814.626 384.842,813.793 383.5,812.5C 393.475,815.273 402.309,813.273 410,806.5C 427.951,776.264 445.118,745.597 461.5,714.5C 468.307,702.896 475.14,691.23 482,679.5C 484.304,673.283 486.137,666.949 487.5,660.5C 490.755,651.812 492.922,642.812 494,633.5C 484.282,620.622 474.782,607.622 465.5,594.5C 465.81,593.262 466.31,593.262 467,594.5C 468.667,596.833 470.333,599.167 472,601.5C 474.587,598.966 477.253,598.966 480,601.5C 482.096,600.285 481.929,599.451 479.5,599C 482.167,598.333 482.167,597.667 479.5,597C 479.944,595.467 480.277,593.967 480.5,592.5C 482.36,593.26 484.027,594.26 485.5,595.5 Z"/></g>
<g><path style="opacity:0.998" fill="#f2d48d" d="M 465.5,594.5 C 474.782,607.622 484.282,620.622 494,633.5C 492.922,642.812 490.755,651.812 487.5,660.5C 484.829,665.622 482.663,671.622 481,678.5C 473.712,690.075 467.212,702.075 461.5,714.5C 445.118,745.597 427.951,776.264 410,806.5C 402.309,813.273 393.475,815.273 383.5,812.5C 379.863,809.694 376.696,806.361 374,802.5C 372.524,797.924 372.19,793.257 373,788.5C 375.117,782.264 377.784,776.264 381,770.5C 389.274,754.28 397.774,738.28 406.5,722.5C 414.664,707.176 422.664,691.509 430.5,675.5C 430.376,674.893 430.043,674.56 429.5,674.5C 429.328,673.508 429.662,672.842 430.5,672.5C 430.81,673.738 431.31,673.738 432,672.5C 437.17,657.656 442.337,642.822 447.5,628C 447.43,627.235 447.097,626.735 446.5,626.5C 450.572,613.617 455.239,600.95 460.5,588.5C 462.219,590.544 463.886,592.544 465.5,594.5 Z"/></g>
<g><path style="opacity:1" fill="#f7e49c" d="M 549.5,583.5 C 552.992,591.818 556.992,599.818 561.5,607.5C 563.05,612.93 565.384,617.93 568.5,622.5C 571.496,629.827 574.496,637.16 577.5,644.5C 577.833,645.833 578.167,647.167 578.5,648.5C 569.24,628.285 559.407,607.619 549,586.5C 548.26,585.251 548.427,584.251 549.5,583.5 Z"/></g>
<g><path style="opacity:0.998" fill="#f2d48d" d="M 327.5,605.5 C 333.678,605.107 339.678,605.94 345.5,608C 359.047,613.688 371.881,620.521 384,628.5C 387.287,632.982 388.287,637.982 387,643.5C 363.187,687.125 338.854,730.458 314,773.5C 313.586,773.957 313.086,774.291 312.5,774.5C 294.624,766.008 279.624,769.675 267.5,785.5C 258.259,781.634 249.759,776.634 242,770.5C 238.311,765.408 236.977,759.742 238,753.5C 262.746,708.339 287.746,663.339 313,618.5C 316.809,612.849 321.642,608.516 327.5,605.5 Z"/></g>
<g><path style="opacity:0.996" fill="#b88e39" d="M 387.5,610.5 C 399.67,618.509 405.17,629.842 404,644.5C 402.95,649.581 401.116,654.248 398.5,658.5C 397.637,659.463 396.97,659.463 396.5,658.5C 406.162,639.662 402.496,623.829 385.5,611C 386.094,610.536 386.761,610.369 387.5,610.5 Z"/></g>
<g><path style="opacity:1" fill="#b58a35" d="M 274.5,653.5 C 282.157,637.51 290.824,622.177 300.5,607.5C 301.117,607.389 301.617,607.056 302,606.5C 293.35,622.782 284.35,639.115 275,655.5C 274.536,654.906 274.369,654.239 274.5,653.5 Z"/></g>
<g><path style="opacity:0.996" fill="#a87f31" d="M 568.5,622.5 C 573.13,629.441 576.13,636.775 577.5,644.5C 574.496,637.16 571.496,629.827 568.5,622.5 Z"/></g>
<g><path style="opacity:0.992" fill="#ba903c" d="M 428.5,627.5 C 429.124,627.917 429.457,628.584 429.5,629.5C 425.123,647.017 418.623,663.684 410,679.5C 408.893,680.712 408.393,680.379 408.5,678.5C 416.35,661.947 423.017,644.947 428.5,627.5 Z"/></g>
<g><path style="opacity:0.996" fill="#f9e7a0" d="M 446.5,626.5 C 447.097,626.735 447.43,627.235 447.5,628C 442.337,642.822 437.17,657.656 432,672.5C 431.31,673.738 430.81,673.738 430.5,672.5C 436.024,657.264 441.357,641.93 446.5,626.5 Z"/></g>
<g><path style="opacity:1" fill="#a67c2e" d="M 590.5,693.5 C 587.323,679.792 583.99,666.125 580.5,652.5C 581.697,653.261 582.53,654.928 583,657.5C 585.833,668.833 588.667,680.167 591.5,691.5C 591.457,692.416 591.124,693.083 590.5,693.5 Z"/></g>
<g><path style="opacity:0.014" fill="#c9a85d" d="M 506.5,658.5 C 509.001,658.511 509.168,659.178 507,660.5C 506.536,659.906 506.369,659.239 506.5,658.5 Z"/></g>
<g><path style="opacity:0.008" fill="#c9a65b" d="M 516.5,672.5 C 516.489,675.001 515.822,675.168 514.5,673C 515.094,672.536 515.761,672.369 516.5,672.5 Z"/></g>
<g><path style="opacity:1" fill="#f7e69f" d="M 579.5,650.5 C 579.328,651.492 579.662,652.158 580.5,652.5C 583.99,666.125 587.323,679.792 590.5,693.5C 590.5,694.167 590.5,694.833 590.5,695.5C 586.415,681.726 582.415,667.226 578.5,652C 578.57,651.235 578.903,650.735 579.5,650.5 Z"/></g>
<g><path style="opacity:1" fill="#b58a35" d="M 233.5,727.5 C 245.409,704.01 258.075,681.01 271.5,658.5C 272.363,657.537 273.03,657.537 273.5,658.5C 259.986,682.865 246.486,707.199 233,731.5C 232.421,730.072 232.588,728.738 233.5,727.5 Z"/></g>
<g><path style="opacity:0.008" fill="#c9a75d" d="M 393.5,707.5 C 390.999,707.489 390.832,706.822 393,705.5C 393.464,706.094 393.631,706.761 393.5,707.5 Z"/></g>
<g><path style="opacity:0.996" fill="#f8e59e" d="M 487.5,660.5 C 486.137,666.949 484.304,673.283 482,679.5C 475.14,691.23 468.307,702.896 461.5,714.5C 467.212,702.075 473.712,690.075 481,678.5C 482.663,671.622 484.829,665.622 487.5,660.5 Z"/></g>
<g><path style="opacity:1" fill="#ba8e3a" d="M 386.5,679.5 C 378.003,695.832 369.003,711.832 359.5,727.5C 358.883,727.611 358.383,727.944 358,728.5C 366.998,711.52 376.331,694.52 386,677.5C 386.464,678.094 386.631,678.761 386.5,679.5 Z"/></g>
<g><path style="opacity:0.006" fill="#c8a85e" d="M 529.5,717.5 C 529.631,718.376 529.298,719.043 528.5,719.5C 527.369,717.926 527.202,716.259 528,714.5C 528.232,715.737 528.732,716.737 529.5,717.5 Z"/></g>
<g><path style="opacity:0.996" fill="#f7e59e" d="M 429.5,674.5 C 430.043,674.56 430.376,674.893 430.5,675.5C 422.664,691.509 414.664,707.176 406.5,722.5C 413.624,706.252 421.29,690.252 429.5,674.5 Z"/></g>
<g><path style="opacity:1" fill="#b78c34" d="M 358.5,780.5 C 369.894,756.045 381.561,731.712 393.5,707.5C 398.103,699.293 402.437,690.959 406.5,682.5C 407.363,681.537 408.03,681.537 408.5,682.5C 392.087,716.257 375.587,749.923 359,783.5C 358.517,782.552 358.351,781.552 358.5,780.5 Z"/></g>
<g><path style="opacity:1" fill="#f9e8a0" d="M 553.5,739.5 C 557.016,749.714 560.016,760.214 562.5,771C 562.43,771.765 562.097,772.265 561.5,772.5C 558.677,761.539 556.01,750.539 553.5,739.5 Z"/></g>
<g><path style="opacity:0.009" fill="#c6a45a" d="M 537.5,748.5 C 537.232,750.099 537.566,751.432 538.5,752.5C 538.721,757.51 537.721,757.677 535.5,753C 535.899,751.272 536.566,749.772 537.5,748.5 Z"/></g>
<g><path style="opacity:0.982" fill="#b18632" d="M 221.5,762.5 C 220.65,752.211 222.983,743.211 228.5,735.5C 229.363,734.537 230.03,734.537 230.5,735.5C 224.803,744.98 222.303,755.313 223,766.5C 222.79,764.942 222.29,763.609 221.5,762.5 Z"/></g>
<g><path style="opacity:0.008" fill="#c5a45b" d="M 541.5,763.5 C 541.489,766.001 540.822,766.168 539.5,764C 540.094,763.536 540.761,763.369 541.5,763.5 Z"/></g>
<g><path style="opacity:0.008" fill="#c4a259" d="M 544.5,780.5 C 545.782,781.708 545.782,783.042 544.5,784.5C 543.708,783.3 543.708,781.967 544.5,780.5 Z"/></g>
<g><path style="opacity:0.008" fill="#c2a158" d="M 547.5,787.5 C 547.44,788.043 547.107,788.376 546.5,788.5C 545.417,787.635 545.251,786.635 546,785.5C 546.278,786.416 546.778,787.082 547.5,787.5 Z"/></g>
<g><path style="opacity:0.998" fill="#f3d68f" d="M 305.5,816.5 C 290.552,821.36 281.885,816.026 279.5,800.5C 279.653,797.2 280.653,794.2 282.5,791.5C 292.586,782.977 302.086,783.643 311,793.5C 314.344,802.484 312.511,810.151 305.5,816.5 Z"/></g>
<g><path style="opacity:1" fill="#b1822b" d="M 357.5,804.5 C 356.549,803.081 356.216,801.415 356.5,799.5C 356.335,796.15 356.502,792.817 357,789.5C 357.178,794.621 358.011,799.621 359.5,804.5C 359.333,805.167 359.167,805.833 359,806.5C 358.722,805.584 358.222,804.918 357.5,804.5 Z"/></g>
<g><path style="opacity:0.992" fill="#b58a33" d="M 327.5,790.5 C 329.55,796.761 329.883,803.095 328.5,809.5C 327.778,809.918 327.278,810.584 327,811.5C 327.829,804.613 327.329,797.779 325.5,791C 325.683,789.316 326.35,789.15 327.5,790.5 Z"/></g>
<g><path style="opacity:0.004" fill="#bc9b53" d="M 554.5,811.5 C 554.253,813.975 553.587,813.975 552.5,811.5C 552.97,810.537 553.637,810.537 554.5,811.5 Z"/></g>
<g><path style="opacity:0.008" fill="#b89a54" d="M 264.5,814.5 C 265.773,815.077 265.773,815.743 264.5,816.5C 263.537,816.03 263.537,815.363 264.5,814.5 Z"/></g>
<g><path style="opacity:1" fill="#a87f32" d="M 282.5,791.5 C 280.653,794.2 279.653,797.2 279.5,800.5C 281.885,816.026 290.552,821.36 305.5,816.5C 296.11,821.708 287.943,820.041 281,811.5C 277.723,804.806 277.723,798.139 281,791.5C 281.69,790.262 282.19,790.262 282.5,791.5 Z"/></g>
<g><path style="opacity:1" fill="#b48936" d="M 429.5,806.5 C 423.587,819.403 413.587,827.07 399.5,829.5C 395.167,829.5 390.833,829.5 386.5,829.5C 384.139,829.326 381.806,828.993 379.5,828.5C 378.791,827.596 377.791,827.263 376.5,827.5C 369.528,823.861 364.194,818.528 360.5,811.5C 360.897,810.475 361.563,810.308 362.5,811C 363.667,812.833 364.833,814.667 366,816.5C 377.164,827.558 390.331,830.892 405.5,826.5C 416.025,822.81 423.525,815.81 428,805.5C 429.107,804.288 429.607,804.621 429.5,806.5 Z"/></g>
<g><path style="opacity:0.012" fill="#b99851" d="M 376.5,827.5 C 377.209,828.404 378.209,828.737 379.5,828.5C 380.463,829.363 380.463,830.03 379.5,830.5C 377.667,829.948 376,829.115 374.5,828C 375.094,827.536 375.761,827.369 376.5,827.5 Z"/></g>
<g><path style="opacity:0.375" fill="#c6a963" d="M 386.5,829.5 C 390.833,829.5 395.167,829.5 399.5,829.5C 395.769,830.196 391.935,830.862 388,831.5C 387.283,830.956 386.783,830.289 386.5,829.5 Z"/></g>
<g><path style="opacity:0.988" fill="#b68d3b" d="M 304.5,833.5 C 287.984,837.253 275.484,831.586 267,816.5C 265.438,812.986 264.605,809.319 264.5,805.5C 264.351,804.448 264.517,803.448 265,802.5C 269.248,824.253 282.415,834.586 304.5,833.5 Z"/></g>
<g><path style="opacity:0.123" fill="#7b7670" d="M 1022.5,47.5 C 1022.83,47.5 1023.17,47.5 1023.5,47.5C 1023.5,372.833 1023.5,698.167 1023.5,1023.5C 721.167,1023.5 418.833,1023.5 116.5,1023.5C 116.5,1023.17 116.5,1022.83 116.5,1022.5C 418.5,1022.5 720.5,1022.5 1022.5,1022.5C 1022.5,697.5 1022.5,372.5 1022.5,47.5 Z"/></g>
</svg>
